<mxfile host="app.diagrams.net" modified="2023-10-23T08:26:45.800Z" agent="Mozilla/5.0 (Windows NT 10.0; Win64; x64) AppleWebKit/537.36 (KHTML, like Gecko) Chrome/118.0.0.0 Safari/537.36" etag="qI8cuVFTN95U9R8uek3J" version="22.0.6" type="github">
  <diagram name="第 1 页" id="XEicXpZz3VGOv-WwQaZo">
    <mxGraphModel dx="23953" dy="25447" grid="1" gridSize="10" guides="1" tooltips="1" connect="1" arrows="1" fold="1" page="1" pageScale="1" pageWidth="827" pageHeight="1169" math="1" shadow="0">
      <root>
        <mxCell id="0" />
        <mxCell id="1" parent="0" />
        <mxCell id="-kjIEGpwDhmasj7m8jJA-1" value="" style="rounded=1;whiteSpace=wrap;html=1;fillColor=#0C84C6;strokeColor=#9673a6;" vertex="1" parent="1">
          <mxGeometry x="-14920" y="-20070" width="2850" height="2830" as="geometry" />
        </mxCell>
        <mxCell id="-kjIEGpwDhmasj7m8jJA-29" value="" style="endArrow=classic;html=1;rounded=0;strokeWidth=10;exitX=1;exitY=0.5;exitDx=0;exitDy=0;endSize=50;endFill=1;" edge="1" parent="1" source="-kjIEGpwDhmasj7m8jJA-33">
          <mxGeometry width="50" height="50" relative="1" as="geometry">
            <mxPoint x="-14019.000000000004" y="-19419.249999999996" as="sourcePoint" />
            <mxPoint x="-13886.75" y="-19404.13" as="targetPoint" />
          </mxGeometry>
        </mxCell>
        <mxCell id="-kjIEGpwDhmasj7m8jJA-33" value="" style="ellipse;whiteSpace=wrap;html=1;aspect=fixed;strokeWidth=5;" vertex="1" parent="1">
          <mxGeometry x="-14850" y="-19541" width="274.5" height="274.5" as="geometry" />
        </mxCell>
        <mxCell id="-kjIEGpwDhmasj7m8jJA-54" value="&lt;span style=&quot;font-size: 100px;&quot;&gt;&lt;font color=&quot;#ffffff&quot;&gt;$$l-1$$&lt;/font&gt;&lt;/span&gt;" style="text;html=1;align=center;verticalAlign=middle;resizable=0;points=[];autosize=1;strokeColor=none;fillColor=none;" vertex="1" parent="1">
          <mxGeometry x="-14843.25" y="-17511" width="360" height="130" as="geometry" />
        </mxCell>
        <mxCell id="-kjIEGpwDhmasj7m8jJA-55" value="&lt;span style=&quot;font-size: 100px;&quot;&gt;&lt;font color=&quot;#ffffff&quot;&gt;$$l$$&lt;/font&gt;&lt;/span&gt;" style="text;html=1;align=center;verticalAlign=middle;resizable=0;points=[];autosize=1;strokeColor=none;fillColor=none;" vertex="1" parent="1">
          <mxGeometry x="-13745.5" y="-17541" width="270" height="130" as="geometry" />
        </mxCell>
        <mxCell id="-kjIEGpwDhmasj7m8jJA-56" value="&lt;span style=&quot;font-size: 100px;&quot;&gt;&lt;font color=&quot;#ffffff&quot;&gt;$$l+1$$&lt;/font&gt;&lt;/span&gt;" style="text;html=1;align=center;verticalAlign=middle;resizable=0;points=[];autosize=1;strokeColor=none;fillColor=none;" vertex="1" parent="1">
          <mxGeometry x="-12570" y="-17541" width="380" height="130" as="geometry" />
        </mxCell>
        <mxCell id="-kjIEGpwDhmasj7m8jJA-62" value="&lt;span style=&quot;font-size: 100px;&quot;&gt;&lt;font color=&quot;#ffffff&quot;&gt;&lt;b&gt;$$\mathcal{W}^{l} \in \mathbb{R}^{256 \times 256}$$&lt;/b&gt;&lt;/font&gt;&lt;/span&gt;" style="text;html=1;strokeColor=none;fillColor=none;align=center;verticalAlign=middle;whiteSpace=wrap;rounded=0;" vertex="1" parent="1">
          <mxGeometry x="-14230" y="-17831" width="220" height="290" as="geometry" />
        </mxCell>
        <mxCell id="-kjIEGpwDhmasj7m8jJA-63" value="&lt;font color=&quot;#ffffff&quot; style=&quot;font-size: 100px;&quot;&gt;$$\mathcal{W}^{l+1}\in \mathbb{R}^{256 \times 256}&lt;br&gt;$$&lt;/font&gt;" style="text;html=1;strokeColor=none;fillColor=none;align=center;verticalAlign=middle;whiteSpace=wrap;rounded=0;" vertex="1" parent="1">
          <mxGeometry x="-13100" y="-17828" width="220" height="290" as="geometry" />
        </mxCell>
        <mxCell id="-kjIEGpwDhmasj7m8jJA-77" value="" style="ellipse;whiteSpace=wrap;html=1;aspect=fixed;strokeWidth=5;" vertex="1" parent="1">
          <mxGeometry x="-14850" y="-19159.13" width="274.5" height="274.5" as="geometry" />
        </mxCell>
        <mxCell id="-kjIEGpwDhmasj7m8jJA-78" value="&lt;font size=&quot;1&quot; style=&quot;&quot;&gt;&lt;b style=&quot;font-size: 80px;&quot;&gt;$$y_{1}^{l-1}$$&lt;/b&gt;&lt;/font&gt;" style="text;html=1;strokeColor=none;fillColor=none;align=center;verticalAlign=middle;whiteSpace=wrap;rounded=0;strokeWidth=5;" vertex="1" parent="1">
          <mxGeometry x="-14750.250000000004" y="-19470.13" width="95" height="150" as="geometry" />
        </mxCell>
        <mxCell id="-kjIEGpwDhmasj7m8jJA-79" value="" style="ellipse;whiteSpace=wrap;html=1;aspect=fixed;strokeWidth=5;" vertex="1" parent="1">
          <mxGeometry x="-14840" y="-18615.13" width="274.5" height="274.5" as="geometry" />
        </mxCell>
        <mxCell id="-kjIEGpwDhmasj7m8jJA-81" value="" style="ellipse;whiteSpace=wrap;html=1;aspect=fixed;strokeWidth=5;" vertex="1" parent="1">
          <mxGeometry x="-14830" y="-18233.13" width="274.5" height="274.5" as="geometry" />
        </mxCell>
        <mxCell id="-kjIEGpwDhmasj7m8jJA-85" value="&lt;font size=&quot;1&quot; style=&quot;&quot;&gt;&lt;b style=&quot;font-size: 80px;&quot;&gt;$$y_{2}^{l-1}$$&lt;/b&gt;&lt;/font&gt;" style="text;html=1;strokeColor=none;fillColor=none;align=center;verticalAlign=middle;whiteSpace=wrap;rounded=0;strokeWidth=5;" vertex="1" parent="1">
          <mxGeometry x="-14750.250000000004" y="-19075.13" width="95" height="150" as="geometry" />
        </mxCell>
        <mxCell id="-kjIEGpwDhmasj7m8jJA-86" value="&lt;font size=&quot;1&quot; style=&quot;&quot;&gt;&lt;b style=&quot;font-size: 80px;&quot;&gt;$$y_{255}^{l-1}$$&lt;/b&gt;&lt;/font&gt;" style="text;html=1;strokeColor=none;fillColor=none;align=center;verticalAlign=middle;whiteSpace=wrap;rounded=0;strokeWidth=5;" vertex="1" parent="1">
          <mxGeometry x="-14760.25" y="-18552.88" width="115" height="150" as="geometry" />
        </mxCell>
        <mxCell id="-kjIEGpwDhmasj7m8jJA-87" value="&lt;font size=&quot;1&quot; style=&quot;&quot;&gt;&lt;b style=&quot;font-size: 80px;&quot;&gt;$$y_{256}^{l-1}$$&lt;/b&gt;&lt;/font&gt;" style="text;html=1;strokeColor=none;fillColor=none;align=center;verticalAlign=middle;whiteSpace=wrap;rounded=0;strokeWidth=5;" vertex="1" parent="1">
          <mxGeometry x="-14726.750000000004" y="-18172.13" width="95" height="150" as="geometry" />
        </mxCell>
        <mxCell id="-kjIEGpwDhmasj7m8jJA-112" value="" style="ellipse;whiteSpace=wrap;html=1;aspect=fixed;strokeWidth=5;" vertex="1" parent="1">
          <mxGeometry x="-13766.75" y="-19541" width="274.5" height="274.5" as="geometry" />
        </mxCell>
        <mxCell id="-kjIEGpwDhmasj7m8jJA-113" value="" style="ellipse;whiteSpace=wrap;html=1;aspect=fixed;strokeWidth=5;" vertex="1" parent="1">
          <mxGeometry x="-13766.75" y="-19159.13" width="274.5" height="274.5" as="geometry" />
        </mxCell>
        <mxCell id="-kjIEGpwDhmasj7m8jJA-114" value="&lt;font size=&quot;1&quot; style=&quot;&quot;&gt;&lt;b style=&quot;font-size: 80px;&quot;&gt;$$y_{1}^{l}$$&lt;/b&gt;&lt;/font&gt;" style="text;html=1;strokeColor=none;fillColor=none;align=center;verticalAlign=middle;whiteSpace=wrap;rounded=0;strokeWidth=5;" vertex="1" parent="1">
          <mxGeometry x="-13667.000000000004" y="-19470.13" width="95" height="150" as="geometry" />
        </mxCell>
        <mxCell id="-kjIEGpwDhmasj7m8jJA-115" value="" style="ellipse;whiteSpace=wrap;html=1;aspect=fixed;strokeWidth=5;" vertex="1" parent="1">
          <mxGeometry x="-13756.75" y="-18615.13" width="274.5" height="274.5" as="geometry" />
        </mxCell>
        <mxCell id="-kjIEGpwDhmasj7m8jJA-116" value="" style="ellipse;whiteSpace=wrap;html=1;aspect=fixed;strokeWidth=5;" vertex="1" parent="1">
          <mxGeometry x="-13746.75" y="-18233.13" width="274.5" height="274.5" as="geometry" />
        </mxCell>
        <mxCell id="-kjIEGpwDhmasj7m8jJA-117" value="&lt;font size=&quot;1&quot; style=&quot;&quot;&gt;&lt;b style=&quot;font-size: 80px;&quot;&gt;$$y_{2}^{l}$$&lt;/b&gt;&lt;/font&gt;" style="text;html=1;strokeColor=none;fillColor=none;align=center;verticalAlign=middle;whiteSpace=wrap;rounded=0;strokeWidth=5;" vertex="1" parent="1">
          <mxGeometry x="-13667.000000000004" y="-19075.13" width="95" height="150" as="geometry" />
        </mxCell>
        <mxCell id="-kjIEGpwDhmasj7m8jJA-118" value="&lt;font size=&quot;1&quot; style=&quot;&quot;&gt;&lt;b style=&quot;font-size: 80px;&quot;&gt;$$y_{255}^{l}$$&lt;/b&gt;&lt;/font&gt;" style="text;html=1;strokeColor=none;fillColor=none;align=center;verticalAlign=middle;whiteSpace=wrap;rounded=0;strokeWidth=5;" vertex="1" parent="1">
          <mxGeometry x="-13677" y="-18552.88" width="115" height="150" as="geometry" />
        </mxCell>
        <mxCell id="-kjIEGpwDhmasj7m8jJA-119" value="&lt;font size=&quot;1&quot; style=&quot;&quot;&gt;&lt;b style=&quot;font-size: 80px;&quot;&gt;$$y_{256}^{l}$$&lt;/b&gt;&lt;/font&gt;" style="text;html=1;strokeColor=none;fillColor=none;align=center;verticalAlign=middle;whiteSpace=wrap;rounded=0;strokeWidth=5;" vertex="1" parent="1">
          <mxGeometry x="-13643.500000000004" y="-18172.13" width="95" height="150" as="geometry" />
        </mxCell>
        <mxCell id="-kjIEGpwDhmasj7m8jJA-120" value="" style="ellipse;whiteSpace=wrap;html=1;aspect=fixed;strokeWidth=5;" vertex="1" parent="1">
          <mxGeometry x="-12576.75" y="-19541" width="274.5" height="274.5" as="geometry" />
        </mxCell>
        <mxCell id="-kjIEGpwDhmasj7m8jJA-121" value="" style="ellipse;whiteSpace=wrap;html=1;aspect=fixed;strokeWidth=5;" vertex="1" parent="1">
          <mxGeometry x="-12576.75" y="-19159.13" width="274.5" height="274.5" as="geometry" />
        </mxCell>
        <mxCell id="-kjIEGpwDhmasj7m8jJA-122" value="&lt;font size=&quot;1&quot; style=&quot;&quot;&gt;&lt;b style=&quot;font-size: 80px;&quot;&gt;$$y_{1}^{l+1}$$&lt;/b&gt;&lt;/font&gt;" style="text;html=1;strokeColor=none;fillColor=none;align=center;verticalAlign=middle;whiteSpace=wrap;rounded=0;strokeWidth=5;" vertex="1" parent="1">
          <mxGeometry x="-12477.000000000004" y="-19470.13" width="95" height="150" as="geometry" />
        </mxCell>
        <mxCell id="-kjIEGpwDhmasj7m8jJA-123" value="" style="ellipse;whiteSpace=wrap;html=1;aspect=fixed;strokeWidth=5;" vertex="1" parent="1">
          <mxGeometry x="-12566.75" y="-18615.13" width="274.5" height="274.5" as="geometry" />
        </mxCell>
        <mxCell id="-kjIEGpwDhmasj7m8jJA-124" value="" style="ellipse;whiteSpace=wrap;html=1;aspect=fixed;strokeWidth=5;" vertex="1" parent="1">
          <mxGeometry x="-12556.75" y="-18233.13" width="274.5" height="274.5" as="geometry" />
        </mxCell>
        <mxCell id="-kjIEGpwDhmasj7m8jJA-125" value="&lt;font size=&quot;1&quot; style=&quot;&quot;&gt;&lt;b style=&quot;font-size: 80px;&quot;&gt;$$y_{2}^{l+1}$$&lt;/b&gt;&lt;/font&gt;" style="text;html=1;strokeColor=none;fillColor=none;align=center;verticalAlign=middle;whiteSpace=wrap;rounded=0;strokeWidth=5;" vertex="1" parent="1">
          <mxGeometry x="-12477.000000000004" y="-19075.13" width="95" height="150" as="geometry" />
        </mxCell>
        <mxCell id="-kjIEGpwDhmasj7m8jJA-126" value="&lt;font size=&quot;1&quot; style=&quot;&quot;&gt;&lt;b style=&quot;font-size: 80px;&quot;&gt;$$y_{255}^{l+1}$$&lt;/b&gt;&lt;/font&gt;" style="text;html=1;strokeColor=none;fillColor=none;align=center;verticalAlign=middle;whiteSpace=wrap;rounded=0;strokeWidth=5;" vertex="1" parent="1">
          <mxGeometry x="-12487" y="-18552.88" width="115" height="150" as="geometry" />
        </mxCell>
        <mxCell id="-kjIEGpwDhmasj7m8jJA-127" value="&lt;font size=&quot;1&quot; style=&quot;&quot;&gt;&lt;b style=&quot;font-size: 80px;&quot;&gt;$$y_{256}^{l+1}$$&lt;/b&gt;&lt;/font&gt;" style="text;html=1;strokeColor=none;fillColor=none;align=center;verticalAlign=middle;whiteSpace=wrap;rounded=0;strokeWidth=5;" vertex="1" parent="1">
          <mxGeometry x="-12453.500000000004" y="-18172.13" width="95" height="150" as="geometry" />
        </mxCell>
        <mxCell id="-kjIEGpwDhmasj7m8jJA-128" value="" style="endArrow=classic;html=1;rounded=0;strokeWidth=10;exitX=1;exitY=0.5;exitDx=0;exitDy=0;endSize=50;endFill=1;" edge="1" parent="1" source="-kjIEGpwDhmasj7m8jJA-77">
          <mxGeometry width="50" height="50" relative="1" as="geometry">
            <mxPoint x="-14565.5" y="-19275.13" as="sourcePoint" />
            <mxPoint x="-13906.75" y="-19355.13" as="targetPoint" />
          </mxGeometry>
        </mxCell>
        <mxCell id="-kjIEGpwDhmasj7m8jJA-129" value="" style="endArrow=classic;html=1;rounded=0;strokeWidth=10;exitX=1;exitY=0.5;exitDx=0;exitDy=0;endSize=50;endFill=1;" edge="1" parent="1" source="-kjIEGpwDhmasj7m8jJA-79">
          <mxGeometry width="50" height="50" relative="1" as="geometry">
            <mxPoint x="-14565.75" y="-19012.13" as="sourcePoint" />
            <mxPoint x="-13876.75" y="-19305.13" as="targetPoint" />
          </mxGeometry>
        </mxCell>
        <mxCell id="-kjIEGpwDhmasj7m8jJA-130" value="" style="endArrow=classic;html=1;rounded=0;strokeWidth=10;exitX=1;exitY=0.5;exitDx=0;exitDy=0;endSize=50;endFill=1;" edge="1" parent="1" source="-kjIEGpwDhmasj7m8jJA-81">
          <mxGeometry width="50" height="50" relative="1" as="geometry">
            <mxPoint x="-14555.75" y="-18468.13" as="sourcePoint" />
            <mxPoint x="-13816.75" y="-19265.13" as="targetPoint" />
          </mxGeometry>
        </mxCell>
        <mxCell id="-kjIEGpwDhmasj7m8jJA-131" value="" style="endArrow=classic;html=1;rounded=0;strokeWidth=10;exitX=1;exitY=0.5;exitDx=0;exitDy=0;endSize=50;endFill=1;" edge="1" parent="1">
          <mxGeometry width="50" height="50" relative="1" as="geometry">
            <mxPoint x="-13492.25" y="-19405.13" as="sourcePoint" />
            <mxPoint x="-12803.25" y="-19405.13" as="targetPoint" />
          </mxGeometry>
        </mxCell>
        <mxCell id="-kjIEGpwDhmasj7m8jJA-132" value="" style="endArrow=classic;html=1;rounded=0;strokeWidth=10;exitX=1;exitY=0.5;exitDx=0;exitDy=0;endSize=50;endFill=1;" edge="1" parent="1">
          <mxGeometry width="50" height="50" relative="1" as="geometry">
            <mxPoint x="-13492.25" y="-19023.13" as="sourcePoint" />
            <mxPoint x="-12823.25" y="-19356.13" as="targetPoint" />
          </mxGeometry>
        </mxCell>
        <mxCell id="-kjIEGpwDhmasj7m8jJA-133" value="" style="endArrow=classic;html=1;rounded=0;strokeWidth=10;exitX=1;exitY=0.5;exitDx=0;exitDy=0;endSize=50;endFill=1;" edge="1" parent="1">
          <mxGeometry width="50" height="50" relative="1" as="geometry">
            <mxPoint x="-13482.25" y="-18479.13" as="sourcePoint" />
            <mxPoint x="-12793.25" y="-19306.13" as="targetPoint" />
          </mxGeometry>
        </mxCell>
        <mxCell id="-kjIEGpwDhmasj7m8jJA-134" value="" style="endArrow=classic;html=1;rounded=0;strokeWidth=10;exitX=1;exitY=0.5;exitDx=0;exitDy=0;endSize=50;endFill=1;" edge="1" parent="1">
          <mxGeometry width="50" height="50" relative="1" as="geometry">
            <mxPoint x="-13472.25" y="-18097.13" as="sourcePoint" />
            <mxPoint x="-12733.25" y="-19266.13" as="targetPoint" />
          </mxGeometry>
        </mxCell>
        <mxCell id="-kjIEGpwDhmasj7m8jJA-135" value="" style="ellipse;whiteSpace=wrap;html=1;aspect=fixed;strokeWidth=5;" vertex="1" parent="1">
          <mxGeometry x="-13766.75" y="-20020" width="274.5" height="274.5" as="geometry" />
        </mxCell>
        <mxCell id="-kjIEGpwDhmasj7m8jJA-136" value="&lt;font size=&quot;1&quot; style=&quot;&quot;&gt;&lt;b style=&quot;font-size: 80px;&quot;&gt;$$b_{1}^{l}$$&lt;/b&gt;&lt;/font&gt;" style="text;html=1;strokeColor=none;fillColor=none;align=center;verticalAlign=middle;whiteSpace=wrap;rounded=0;strokeWidth=5;" vertex="1" parent="1">
          <mxGeometry x="-13663.500000000004" y="-19959" width="95" height="150" as="geometry" />
        </mxCell>
        <mxCell id="-kjIEGpwDhmasj7m8jJA-141" value="" style="endArrow=classic;html=1;rounded=0;strokeWidth=10;exitX=0.5;exitY=1;exitDx=0;exitDy=0;endSize=50;endFill=1;entryX=0.5;entryY=0;entryDx=0;entryDy=0;" edge="1" parent="1" source="-kjIEGpwDhmasj7m8jJA-135" target="-kjIEGpwDhmasj7m8jJA-112">
          <mxGeometry width="50" height="50" relative="1" as="geometry">
            <mxPoint x="-14490" y="-19772.2" as="sourcePoint" />
            <mxPoint x="-13801.75" y="-19772.33" as="targetPoint" />
          </mxGeometry>
        </mxCell>
        <mxCell id="-kjIEGpwDhmasj7m8jJA-142" value="" style="ellipse;whiteSpace=wrap;html=1;aspect=fixed;strokeWidth=5;" vertex="1" parent="1">
          <mxGeometry x="-12590" y="-20020" width="274.5" height="274.5" as="geometry" />
        </mxCell>
        <mxCell id="-kjIEGpwDhmasj7m8jJA-143" value="&lt;font size=&quot;1&quot; style=&quot;&quot;&gt;&lt;b style=&quot;font-size: 80px;&quot;&gt;$$b_{1}^{l}$$&lt;/b&gt;&lt;/font&gt;" style="text;html=1;strokeColor=none;fillColor=none;align=center;verticalAlign=middle;whiteSpace=wrap;rounded=0;strokeWidth=5;" vertex="1" parent="1">
          <mxGeometry x="-12486.750000000004" y="-19959" width="95" height="150" as="geometry" />
        </mxCell>
        <mxCell id="-kjIEGpwDhmasj7m8jJA-144" value="" style="endArrow=classic;html=1;rounded=0;strokeWidth=10;exitX=0.5;exitY=1;exitDx=0;exitDy=0;endSize=50;endFill=1;entryX=0.5;entryY=0;entryDx=0;entryDy=0;" edge="1" parent="1" source="-kjIEGpwDhmasj7m8jJA-142">
          <mxGeometry width="50" height="50" relative="1" as="geometry">
            <mxPoint x="-13313.25" y="-19772.2" as="sourcePoint" />
            <mxPoint x="-12452.25" y="-19541" as="targetPoint" />
          </mxGeometry>
        </mxCell>
      </root>
    </mxGraphModel>
  </diagram>
</mxfile>
